<svg width="17" height="17" viewBox="0 0 17 17" fill="none" xmlns="http://www.w3.org/2000/svg">
    <path d="M5.128 1.417H3.782c-1.55 0-2.365.814-2.365 2.358v1.346c0 1.544.814 2.359 2.358 2.359h1.346c1.544 0 2.359-.815 2.359-2.359V3.775c.007-1.544-.808-2.358-2.352-2.358zM13.225 1.417h-1.346c-1.544 0-2.359.814-2.359 2.358v1.346c0 1.544.815 2.359 2.359 2.359h1.346c1.544 0 2.358-.815 2.358-2.359V3.775c0-1.544-.814-2.358-2.358-2.358zM13.225 9.513h-1.346c-1.544 0-2.359.815-2.359 2.359v1.345c0 1.545.815 2.36 2.359 2.36h1.346c1.544 0 2.358-.815 2.358-2.36v-1.345c0-1.544-.814-2.36-2.358-2.36zM5.128 9.513H3.782c-1.55 0-2.365.815-2.365 2.359v1.345c0 1.552.814 2.366 2.358 2.366h1.346c1.544 0 2.359-.814 2.359-2.358v-1.346c.007-1.551-.808-2.366-2.352-2.366z" fill="#292D32"/>
</svg>
